<mxfile host="app.diagrams.net" modified="2022-03-17T09:45:27.183Z" agent="5.0 (Windows NT 10.0; Win64; x64) AppleWebKit/537.36 (KHTML, like Gecko) Chrome/99.0.4844.51 Safari/537.36 Edg/99.0.1150.39" etag="u7fWbqMdBaGc9RVQU5f8" version="16.5.6" type="github">
  <diagram id="qqHJglAe3QoaMG8guCTT" name="class diagram mc">
    <mxGraphModel dx="911" dy="652" grid="1" gridSize="10" guides="1" tooltips="1" connect="1" arrows="1" fold="1" page="1" pageScale="1" pageWidth="850" pageHeight="1100" math="0" shadow="0">
      <root>
        <mxCell id="0" />
        <mxCell id="1" parent="0" />
      </root>
    </mxGraphModel>
  </diagram>
</mxfile>
